<?xml version="1.0" standalone="no"?>
<!DOCTYPE svg PUBLIC "-//W3C//DTD SVG 20010904//EN"
 "http://www.w3.org/TR/2001/REC-SVG-20010904/DTD/svg10.dtd">
<svg version="1.0" xmlns="http://www.w3.org/2000/svg"
 width="50.5621614pt" height="40.4348485pt" viewBox="0 0 505.621614 404.348485"
 preserveAspectRatio="xMidYMid meet">
<metadata>
Created by potrace 1.12, written by Peter Selinger 2001-2015
</metadata>
<g transform="translate(-49.000000,411.848485) scale(0.100000,-0.100000)"
fill="#000000" stroke="none">
<path d="M5202 4095 c-71 -60 -82 -207 -38 -500 44 -291 65 -428 71 -470 3
-22 7 -53 10 -70 47 -303 53 -677 15 -920 -152 -969 -1102 -1704 -2314 -1793
-185 -13 -708 -7 -916 11 -229 21 -538 57 -770 93 -159 24 -563 95 -645 114
-63 15 -125 13 -125 -4 0 -43 307 -189 600 -286 409 -136 826 -195 1380 -195
444 0 743 34 1100 125 743 190 1358 611 1685 1155 283 470 360 1164 230 2063
-9 59 -34 195 -55 303 -65 319 -94 391 -161 397 -27 2 -44 -3 -67 -23z"/>
<path d="M1782 3085 c-248 -81 -640 -419 -830 -713 -22 -35 -56 -73 -74 -86
-29 -19 -33 -28 -34 -66 -1 -25 -15 -80 -33 -125 -56 -137 -82 -249 -88 -380
-4 -92 -2 -134 10 -182 46 -179 167 -297 372 -364 59 -20 92 -23 210 -24 77 0
158 3 180 7 55 9 169 45 230 73 190 84 595 392 595 453 0 45 -53 33 -330 -73
-361 -138 -617 -215 -719 -215 -164 0 -261 109 -261 293 0 85 18 163 63 266
l32 73 130 2 c111 2 140 6 200 28 208 75 377 204 490 373 67 100 152 280 170
357 29 128 1 223 -82 282 -35 24 -53 29 -115 32 -44 2 -90 -2 -116 -11z m8
-355 c-149 -252 -286 -380 -467 -433 -29 -9 -53 -13 -53 -10 0 3 26 40 57 82
77 103 203 232 289 297 69 51 195 126 202 120 1 -2 -11 -27 -28 -56z"/>
<path d="M3585 2895 c-5 -1 -37 -11 -70 -20 -300 -87 -680 -463 -875 -867 -70
-144 -94 -245 -88 -373 4 -87 9 -111 35 -168 121 -257 392 -280 718 -62 73 49
215 158 275 210 75 66 249 227 317 293 40 39 75 66 79 61 7 -12 0 -105 -31
-394 -50 -466 -54 -555 -24 -591 60 -73 181 139 238 421 69 338 75 727 16 973
-65 268 -206 454 -384 506 -47 14 -176 21 -206 11z m154 -275 c42 -21 87 -72
119 -136 22 -43 62 -144 62 -156 0 -11 -96 -114 -245 -263 -359 -358 -582
-525 -701 -525 -58 0 -82 23 -94 92 -37 202 139 553 392 779 219 197 365 262
467 209z"/>
</g>
</svg>
